<svg xmlns="http://www.w3.org/2000/svg" xmlns:xlink="http://www.w3.org/1999/xlink" width="2000" zoomAndPan="magnify"
    viewBox="-100 -100 2000 2000" height="2000" preserveAspectRatio="xMidYMid meet" version="1.0">

    <!-- plane -->
    <g mask="url(#mask0_1_15)">
        <animateTransform attributeName="transform" type="rotate" from="0 750 750" to="360 750 750" dur="5s"
            repeatCount="indefinite" />

        <g mask="url(#mask1_1_15)">
            <path
                d="M43.7032 1059.26C43.2448 1058.02 42.8542 1056.73 42.4532 1055.51C33.2032 1027.51 26.2292 998.693 20.3282 969.818C8.9219 913.885 2.30211 856.938 0.598985 799.932C-1.65622 725.234 4.28128 650.302 20.4896 577.266C39.3802 492.094 71.7969 410.469 117.724 336.24C168.563 253.906 235.818 180.052 313.969 122.896C379.646 74.8542 453.823 39.4584 532.76 19.5573C601.104 2.34378 672.219 -2.84893 742.5 1.75524C802.906 5.75003 862.688 17.073 920.797 33.9584C962.844 46.1875 1004.03 61.4011 1043.82 79.6563C1059.94 87.0417 1076.07 94.8386 1091.37 103.792C1101.16 109.536 1090.56 123.703 1080.89 117.974C1079.94 117.396 1078.99 116.88 1078.04 116.359C1080.82 117.969 1077.59 116.135 1076.2 115.328C1074.52 114.438 1072.84 113.542 1071.17 112.651C1066.41 110.12 1061.65 107.703 1056.88 105.349C1042.78 98.3646 1028.45 91.8855 1013.97 85.7448C970.417 67.3177 925.313 52.2084 879.37 40.974C819.307 26.2448 757.542 17.9584 695.661 17.7084C624.964 17.4375 553.885 28.2552 487.021 51.4323C408.042 78.7865 336.01 122.703 273.609 178.146C201.828 241.974 141.807 319.516 99.1459 405.526C62.7084 479.016 38.7865 558.198 26.9636 639.349C16.8802 708.318 15.2032 778.391 20.875 847.839C24.9844 897.943 32.6771 947.786 44.3802 996.708C46.2761 1004.79 48.3594 1012.83 50.5052 1020.82C51.3854 1024.11 52.2761 1027.34 53.224 1030.58C53.6511 1032.11 54.0782 1033.64 54.5573 1035.17C54.7292 1035.78 54.9011 1036.39 55.0782 1036.94C55.0677 1037 55.0677 1037 55.1198 1037.06C56.6459 1042.08 58.1667 1047.1 59.8802 1052.03C63.6198 1062.73 47.5104 1069.91 43.7032 1059.26ZM1348.8 264.844C1333.16 248.755 1317.52 232.661 1301.87 216.63C1302.36 202.896 1304.2 189.307 1305.93 175.646C1306.87 168.172 1307.69 160.688 1308.09 153.156C1308.42 146.917 1308.91 140.281 1305.61 134.714C1301.87 128.328 1294.21 125.833 1287.34 128.573C1280.47 131.318 1276.44 137.859 1273.27 144.203C1268.49 153.797 1264.38 163.823 1260.21 173.786C1249.94 163.198 1239.61 152.656 1229.35 142.068C1225.68 138.292 1220.96 134.344 1219.28 129.13C1217.57 123.672 1218.19 117.469 1217.8 111.802C1217.05 101.839 1212.71 92.25 1203.82 87.0157C1179.18 72.5469 1167.89 112.505 1164.8 129.391C1161.08 149.938 1169.41 166.292 1181.91 180.323C1172.04 180.667 1162.23 181.073 1152.36 181.531C1139.44 182.193 1126.52 182.911 1113.67 184.115C1102.54 185.146 1082.46 186.974 1087.92 203.609C1092.99 218.964 1113.82 224.375 1127.44 228.109C1146.46 233.328 1165.55 238.49 1184.94 242.443C1203.06 246.141 1222.26 247.052 1239.66 253.568C1256.43 259.844 1268.91 272.922 1283.17 283.24C1297.26 293.479 1314.79 301.552 1332.64 299.063C1340.39 297.958 1349.74 294.714 1353.94 287.661C1358.67 279.594 1354.58 271.036 1348.8 264.844ZM1285.89 159.193C1287.09 156.365 1288.29 153.479 1289.66 150.724C1289.81 150.448 1290.16 149.953 1290.58 149.349C1289.86 166.198 1286.97 182.865 1285.27 199.604C1281.39 195.573 1277.44 191.589 1273.56 187.557C1277.67 178.12 1281.78 168.625 1285.89 159.193ZM1330.89 281.469C1324.61 282.563 1318.17 281.443 1312.24 279.318C1298.69 274.458 1288.03 264.714 1276.93 255.865C1265.71 246.948 1253.89 239.266 1240.01 235.146C1225.4 230.766 1210.17 229.281 1195.15 226.51C1179.13 223.578 1163.34 219.667 1147.58 215.458C1135.46 212.177 1119.83 210.057 1109.31 202.339C1109.55 202.307 1109.79 202.214 1109.97 202.234C1115.01 201.656 1120.02 201.26 1125.03 200.859C1135.66 200.01 1146.32 199.401 1156.97 198.906C1167.56 198.406 1178.14 197.964 1188.71 197.641C1192.34 197.5 1196.02 197.432 1199.64 197.292C1199.99 197.271 1201.01 197.266 1201.66 197.219C1201.78 197.229 1201.84 197.24 1201.96 197.193C1202.38 197.177 1202.26 197.167 1201.96 197.193C1210.56 197.005 1215.28 187.401 1208.19 181.359C1199.26 173.755 1189.85 165.51 1184.76 154.714C1178.86 142.052 1182.08 128.854 1186.88 116.417C1187.78 114.089 1191.03 102.25 1193.7 101.651C1198.24 100.672 1200.05 111.167 1200.27 113.5C1201.45 125.995 1200.93 136.771 1209.64 146.953C1218.97 157.917 1229.79 167.859 1239.85 178.13C1250.33 188.865 1260.76 199.594 1271.24 210.385C1292.53 232.24 1313.76 254.031 1335.05 275.891C1335.31 276.156 1337.17 278.724 1337.73 278.964C1337.73 278.964 1337.73 278.964 1337.79 278.969C1335.59 280.151 1333.36 281.031 1330.89 281.469ZM1338.46 279.339C1339.3 279.786 1338.66 279.714 1338.46 279.339Z"
                fill="#412E8F" />
        </g>
    </g>


    <!-- earth "water" -->
    <g clip-path="url(#4f89bcc263)">
        <path fill="#412e8f"
            d="M 1168.535156 699.898438 C 1168.535156 707.265625 1168.355469 714.632812 1167.992188 721.992188 C 1167.632812 729.351562 1167.089844 736.695312 1166.367188 744.03125 C 1165.644531 751.363281 1164.742188 758.675781 1163.660156 765.960938 C 1162.582031 773.25 1161.320312 780.507812 1159.882812 787.734375 C 1158.445312 794.964844 1156.832031 802.152344 1155.042969 809.296875 C 1153.25 816.445312 1151.285156 823.546875 1149.148438 830.597656 C 1147.007812 837.648438 1144.699219 844.640625 1142.214844 851.582031 C 1139.734375 858.519531 1137.082031 865.390625 1134.261719 872.199219 C 1131.441406 879.003906 1128.457031 885.738281 1125.308594 892.402344 C 1122.15625 899.0625 1118.84375 905.640625 1115.371094 912.140625 C 1111.898438 918.640625 1108.265625 925.046875 1104.480469 931.367188 C 1100.691406 937.6875 1096.75 943.910156 1092.65625 950.039062 C 1088.5625 956.164062 1084.320312 962.1875 1079.929688 968.105469 C 1075.542969 974.023438 1071.011719 979.832031 1066.335938 985.527344 C 1061.660156 991.222656 1056.847656 996.800781 1051.902344 1002.261719 C 1046.953125 1007.722656 1041.875 1013.054688 1036.664062 1018.265625 C 1031.453125 1023.476562 1026.117188 1028.554688 1020.65625 1033.503906 C 1015.199219 1038.453125 1009.621094 1043.265625 1003.925781 1047.9375 C 998.226562 1052.613281 992.421875 1057.144531 986.503906 1061.535156 C 980.585938 1065.925781 974.5625 1070.167969 968.433594 1074.261719 C 962.308594 1078.355469 956.085938 1082.292969 949.765625 1086.082031 C 943.445312 1089.871094 937.035156 1093.5 930.535156 1096.976562 C 924.039062 1100.449219 917.457031 1103.761719 910.796875 1106.910156 C 904.136719 1110.0625 897.402344 1113.046875 890.59375 1115.867188 C 883.785156 1118.6875 876.914062 1121.335938 869.976562 1123.820312 C 863.039062 1126.300781 856.042969 1128.613281 848.992188 1130.75 C 841.941406 1132.890625 834.84375 1134.855469 827.695312 1136.644531 C 820.546875 1138.4375 813.359375 1140.050781 806.132812 1141.488281 C 798.90625 1142.925781 791.648438 1144.183594 784.359375 1145.265625 C 777.070312 1146.347656 769.757812 1147.25 762.425781 1147.972656 C 755.09375 1148.691406 747.746094 1149.234375 740.386719 1149.597656 C 733.027344 1149.957031 725.664062 1150.140625 718.296875 1150.140625 C 710.925781 1150.140625 703.5625 1149.957031 696.203125 1149.597656 C 688.84375 1149.234375 681.496094 1148.691406 674.164062 1147.972656 C 666.832031 1147.25 659.519531 1146.347656 652.230469 1145.265625 C 644.941406 1144.183594 637.683594 1142.925781 630.457031 1141.488281 C 623.230469 1140.050781 616.042969 1138.4375 608.894531 1136.644531 C 601.746094 1134.855469 594.648438 1132.890625 587.597656 1130.75 C 580.546875 1128.613281 573.550781 1126.300781 566.613281 1123.820312 C 559.675781 1121.335938 552.804688 1118.6875 545.996094 1115.867188 C 539.1875 1113.046875 532.453125 1110.0625 525.792969 1106.910156 C 519.132812 1103.761719 512.550781 1100.449219 506.054688 1096.976562 C 499.554688 1093.5 493.144531 1089.871094 486.824219 1086.082031 C 480.503906 1082.292969 474.28125 1078.355469 468.15625 1074.261719 C 462.027344 1070.167969 456.003906 1065.925781 450.085938 1061.535156 C 444.167969 1057.144531 438.363281 1052.613281 432.664062 1047.9375 C 426.96875 1043.265625 421.390625 1038.453125 415.933594 1033.503906 C 410.472656 1028.554688 405.136719 1023.476562 399.925781 1018.265625 C 394.71875 1013.054688 389.636719 1007.722656 384.6875 1002.261719 C 379.742188 996.800781 374.929688 991.222656 370.253906 985.527344 C 365.582031 979.832031 361.046875 974.023438 356.660156 968.105469 C 352.269531 962.1875 348.027344 956.164062 343.933594 950.039062 C 339.839844 943.910156 335.898438 937.6875 332.109375 931.367188 C 328.324219 925.046875 324.691406 918.640625 321.21875 912.140625 C 317.746094 905.640625 314.433594 899.0625 311.28125 892.402344 C 308.132812 885.738281 305.148438 879.003906 302.328125 872.199219 C 299.507812 865.390625 296.855469 858.519531 294.375 851.582031 C 291.890625 844.640625 289.582031 837.648438 287.441406 830.597656 C 285.304688 823.546875 283.339844 816.445312 281.546875 809.296875 C 279.757812 802.152344 278.144531 794.964844 276.707031 787.734375 C 275.269531 780.507812 274.007812 773.25 272.929688 765.960938 C 271.847656 758.675781 270.945312 751.363281 270.222656 744.03125 C 269.5 736.695312 268.957031 729.351562 268.597656 721.992188 C 268.234375 714.632812 268.054688 707.265625 268.054688 699.898438 C 268.054688 692.53125 268.234375 685.167969 268.597656 677.808594 C 268.957031 670.445312 269.5 663.101562 270.222656 655.769531 C 270.945312 648.433594 271.847656 641.125 272.929688 633.835938 C 274.007812 626.546875 275.269531 619.289062 276.707031 612.0625 C 278.144531 604.835938 279.757812 597.648438 281.546875 590.5 C 283.339844 583.351562 285.304688 576.253906 287.441406 569.199219 C 289.582031 562.148438 291.890625 555.15625 294.375 548.21875 C 296.855469 541.28125 299.507812 534.40625 302.328125 527.597656 C 305.148438 520.792969 308.132812 514.058594 311.28125 507.394531 C 314.433594 500.734375 317.746094 494.15625 321.21875 487.65625 C 324.691406 481.160156 328.324219 474.75 332.109375 468.429688 C 335.898438 462.109375 339.839844 455.886719 343.933594 449.757812 C 348.027344 443.632812 352.269531 437.609375 356.660156 431.691406 C 361.046875 425.773438 365.582031 419.964844 370.253906 414.269531 C 374.929688 408.574219 379.742188 402.996094 384.6875 397.535156 C 389.636719 392.078125 394.71875 386.742188 399.925781 381.53125 C 405.136719 376.320312 410.472656 371.242188 415.933594 366.292969 C 421.390625 361.34375 426.96875 356.53125 432.664062 351.859375 C 438.363281 347.183594 444.167969 342.652344 450.085938 338.261719 C 456.003906 333.875 462.027344 329.632812 468.15625 325.539062 C 474.28125 321.445312 480.503906 317.503906 486.824219 313.714844 C 493.144531 309.925781 499.554688 306.296875 506.054688 302.824219 C 512.550781 299.347656 519.132812 296.035156 525.792969 292.886719 C 532.453125 289.734375 539.1875 286.75 545.996094 283.929688 C 552.804688 281.113281 559.675781 278.460938 566.613281 275.976562 C 573.550781 273.496094 580.546875 271.183594 587.597656 269.046875 C 594.648438 266.90625 601.746094 264.941406 608.894531 263.152344 C 616.042969 261.363281 623.230469 259.746094 630.457031 258.308594 C 637.683594 256.871094 644.941406 255.613281 652.230469 254.53125 C 659.519531 253.449219 666.832031 252.550781 674.164062 251.828125 C 681.496094 251.105469 688.84375 250.5625 696.203125 250.199219 C 703.5625 249.839844 710.925781 249.660156 718.296875 249.660156 C 725.664062 249.660156 733.027344 249.839844 740.386719 250.199219 C 747.746094 250.5625 755.09375 251.105469 762.425781 251.828125 C 769.757812 252.550781 777.070312 253.449219 784.359375 254.53125 C 791.648438 255.613281 798.90625 256.871094 806.132812 258.308594 C 813.359375 259.746094 820.546875 261.363281 827.695312 263.152344 C 834.84375 264.941406 841.941406 266.90625 848.992188 269.046875 C 856.042969 271.183594 863.039062 273.496094 869.976562 275.976562 C 876.914062 278.460938 883.785156 281.113281 890.59375 283.929688 C 897.402344 286.75 904.136719 289.734375 910.796875 292.886719 C 917.457031 296.035156 924.039062 299.347656 930.535156 302.824219 C 937.035156 306.296875 943.445312 309.925781 949.765625 313.714844 C 956.085938 317.503906 962.308594 321.445312 968.433594 325.539062 C 974.5625 329.632812 980.585938 333.875 986.503906 338.261719 C 992.421875 342.652344 998.226562 347.183594 1003.925781 351.859375 C 1009.621094 356.53125 1015.199219 361.34375 1020.65625 366.292969 C 1026.117188 371.242188 1031.453125 376.320312 1036.664062 381.53125 C 1041.875 386.742188 1046.953125 392.078125 1051.902344 397.535156 C 1056.847656 402.996094 1061.660156 408.574219 1066.335938 414.269531 C 1071.011719 419.964844 1075.542969 425.773438 1079.929688 431.691406 C 1084.320312 437.609375 1088.5625 443.632812 1092.65625 449.757812 C 1096.75 455.886719 1100.691406 462.109375 1104.480469 468.429688 C 1108.265625 474.75 1111.898438 481.160156 1115.371094 487.65625 C 1118.84375 494.15625 1122.15625 500.734375 1125.308594 507.394531 C 1128.457031 514.058594 1131.441406 520.792969 1134.261719 527.597656 C 1137.082031 534.40625 1139.734375 541.28125 1142.214844 548.21875 C 1144.699219 555.15625 1147.007812 562.148438 1149.148438 569.199219 C 1151.285156 576.253906 1153.25 583.351562 1155.042969 590.5 C 1156.832031 597.648438 1158.445312 604.835938 1159.882812 612.0625 C 1161.320312 619.289062 1162.582031 626.546875 1163.660156 633.835938 C 1164.742188 641.125 1165.644531 648.433594 1166.367188 655.769531 C 1167.089844 663.101562 1167.632812 670.445312 1167.992188 677.808594 C 1168.355469 685.167969 1168.535156 692.53125 1168.535156 699.898438 Z M 1168.535156 699.898438 "
            fill-opacity="1" fill-rule="nonzero" />
    </g>

    <!-- earth "continents"-->
    <path fill="#ffffff"
        d="M 1021.707031 843.675781 C 996.269531 833.921875 1000.796875 837.472656 985.113281 804.128906 C 969.429688 770.8125 959.925781 760.082031 924.65625 756.179688 C 889.363281 752.300781 890.6875 755.054688 880.882812 737.417969 C 871.078125 719.757812 831.304688 742.195312 805.839844 752.027344 C 780.304688 761.832031 786.605469 783.191406 778.753906 781.191406 C 770.875 779.242188 751.0625 774.164062 731.402344 758.503906 C 711.792969 742.796875 745.984375 730.539062 755.816406 720.761719 C 765.644531 710.929688 737.304688 716.28125 727.476562 710.355469 C 717.644531 704.5 700.058594 722.136719 684.378906 706.402344 C 668.667969 690.71875 678.5 667.179688 676.546875 647.570312 C 674.570312 627.933594 702.011719 624.035156 719.671875 620.105469 C 737.304688 616.203125 751.011719 620.132812 751.011719 643.644531 C 751.011719 667.179688 772.597656 675.035156 766.722656 647.546875 C 760.84375 620.054688 772.597656 612.253906 780.476562 598.519531 C 788.308594 584.789062 802.039062 565.152344 819.675781 535.734375 C 837.332031 506.320312 849.113281 520.027344 870.675781 522.128906 C 892.261719 524.253906 898.140625 520.054688 913.824219 522.027344 C 929.457031 524.003906 913.824219 502.417969 919.726562 480.855469 C 925.582031 459.296875 947.167969 463.199219 968.777344 469.101562 C 990.339844 474.980469 947.167969 441.609375 939.339844 423.976562 C 931.457031 406.316406 909.898438 423.976562 896.214844 394.5625 C 882.382812 365.144531 863.097656 346.109375 845.4375 343.484375 C 827.777344 340.832031 851.066406 380.855469 837.332031 402.414062 C 823.550781 423.976562 802.441406 420.601562 780.804688 420.601562 C 759.265625 420.601562 739.257812 402.414062 754.964844 374.949219 C 770.621094 347.511719 800.5625 350.335938 816.246094 326.800781 C 831.957031 303.289062 760.46875 305.4375 734.953125 297.609375 C 709.441406 289.753906 678.824219 289.828125 653.335938 309.441406 C 627.820312 329.027344 573.269531 335.152344 551.679688 342.984375 C 530.121094 350.8125 526.242188 329.976562 522.339844 314.269531 C 520.589844 307.289062 512.636719 305.089844 501.429688 305.339844 C 445.898438 335.953125 397.800781 378.175781 359.703125 428.429688 C 365.632812 448.613281 394.347656 423.703125 399.976562 418.074219 C 405.851562 412.195312 435.269531 420.050781 439.171875 441.609375 C 443.097656 463.171875 441.148438 486.761719 433.316406 506.371094 C 425.464844 525.957031 452.929688 553.421875 468.613281 580.886719 C 484.320312 608.375 501.953125 608.351562 509.808594 608.351562 C 517.636719 608.351562 562.761719 626.007812 560.785156 647.570312 C 558.835938 669.15625 601.984375 688.742188 619.640625 702.476562 C 637.300781 716.257812 648.457031 729.789062 671.371094 733.742188 C 694.308594 737.695312 721.121094 775.1875 732.878906 779.140625 C 741.90625 782.144531 757.191406 796.574219 766.421875 801.054688 C 754.289062 816.410156 730.800781 847.953125 730.800781 862.484375 C 730.800781 882.144531 756.441406 913.039062 766.246094 920.867188 C 776.027344 928.671875 804.191406 934.625 810.019531 954.210938 C 815.921875 973.820312 805.917969 1039.832031 788.308594 1057.464844 C 770.597656 1075.097656 764.167969 1116.796875 764.167969 1116.796875 C 764.167969 1116.796875 770.398438 1130.328125 791.257812 1116.796875 C 814.320312 1101.863281 852.941406 1059.339844 868.375 1050.085938 C 897.789062 1032.402344 926.382812 1010.941406 953.847656 985.476562 C 981.308594 959.988281 971.355469 942.128906 985.113281 916.691406 C 998.84375 891.199219 1016.605469 892.351562 1040.117188 870.839844 C 1063.679688 849.226562 1047.21875 853.503906 1021.707031 843.675781 Z M 1021.707031 843.675781 "
        fill-opacity="1" fill-rule="nonzero" />
</svg>